<svg width="48" height="48" viewBox="0 0 25 26" fill="none" xmlns="http://www.w3.org/2000/svg">
                    <path d="M5.61819 1.36844C9.53663 1.63077 13.3084 2.96062 16.5254 5.21317C19.7425 7.46577 22.2825 10.5553 23.8692 14.1477C23.9603 14.3533 24.0098 14.5753 24.0147 14.8001C24.0195 15.025 23.9789 15.249 23.8965 15.4583C23.8165 15.668 23.696 15.8603 23.541 16.0227C23.3861 16.1852 23.1999 16.3147 22.9942 16.4046L4.95804 24.2845C4.68937 24.4027 4.39468 24.4499 4.10257 24.4212C3.81024 24.3924 3.52971 24.2889 3.28909 24.1204C3.04855 23.952 2.85556 23.724 2.72855 23.4593C2.60153 23.1944 2.54522 22.9008 2.56448 22.6077L3.79983 2.96415C3.81426 2.74013 3.87264 2.52105 3.97171 2.31962C4.07088 2.11801 4.20912 1.93758 4.37796 1.78934C4.54676 1.64117 4.74341 1.52759 4.95608 1.45536C5.16877 1.38315 5.39407 1.3537 5.61819 1.36844ZM5.20901 7.80692C5.81378 7.76962 6.41977 7.86174 6.98636 8.07645C7.55292 8.29116 8.067 8.62432 8.49515 9.05301C8.92331 9.48176 9.2558 9.99687 9.46976 10.5638C9.6836 11.1305 9.77447 11.7365 9.73636 12.3411C9.69821 12.9456 9.53235 13.5352 9.24905 14.0706C8.96569 14.606 8.57123 15.075 8.0928 15.4466C7.61421 15.8181 7.06175 16.084 6.47269 16.2259C5.88361 16.3677 5.27111 16.3828 4.67581 16.2698L4.27249 22.7122L7.10452 21.4729C6.80661 20.4734 6.88414 19.3994 7.32327 18.4534C7.76255 17.5073 8.53337 16.7547 9.48929 16.3372C10.4451 15.9198 11.5203 15.8661 12.5127 16.1868C13.5053 16.5076 14.3462 17.1804 14.877 18.0784L19.1504 16.2122C18.7111 15.2066 18.1723 14.253 17.5459 13.3636C17.1403 13.6754 16.6318 13.9745 16.0655 14.1477C15.1273 14.4345 13.9978 14.3758 13.0196 13.4475C12.0795 12.5551 11.8648 11.5056 12.0059 10.5852C12.1118 9.89522 12.4134 9.28739 12.7217 8.84794C10.4759 7.47915 7.92621 6.67287 5.29105 6.50712L5.20901 7.80692ZM11.8867 17.7903C11.3199 17.6333 10.7159 17.6753 10.1768 17.9104C9.63769 18.1457 9.19624 18.56 8.92581 19.0823C8.65548 19.6046 8.57237 20.2037 8.69144 20.7796L13.2901 18.7727C12.9489 18.2939 12.4533 17.9474 11.8867 17.7903ZM5.39944 4.80008C8.69178 5.00847 11.8631 6.11985 14.5655 8.012C17.2679 9.90428 19.3969 12.5049 20.7188 15.5276L22.3057 14.8362C20.8439 11.5302 18.506 8.68692 15.545 6.61356C12.5839 4.5402 9.1125 3.31547 5.50589 3.07255L5.39944 4.80008ZM6.22757 9.62235C5.86313 9.50972 5.47807 9.47943 5.10062 9.53446L4.78519 14.5423C5.15273 14.6442 5.53843 14.662 5.91409 14.596C6.28987 14.5299 6.64624 14.3807 6.95706 14.1595C7.26777 13.9383 7.52557 13.651 7.71097 13.3177C7.89635 12.9843 8.00533 12.6134 8.02933 12.2327C8.05329 11.852 7.99173 11.4705 7.84964 11.1165C7.70749 10.7624 7.48769 10.4443 7.20706 10.1858C6.92651 9.92745 6.59195 9.73499 6.22757 9.62235ZM13.9649 9.68778C13.7617 9.97097 13.5551 10.3776 13.4883 10.8128C13.413 11.3041 13.5078 11.8432 14.0518 12.3597C14.5577 12.8397 15.0907 12.878 15.627 12.7141C15.9923 12.6024 16.3415 12.397 16.626 12.179C15.838 11.2547 14.9465 10.4183 13.9649 9.68778Z" fill="#EFDBC5
                      "></path>
                </svg>