<svg width="240" height="240" viewBox="0 0 240 240" fill="none" xmlns="http://www.w3.org/2000/svg">
<path d="M47.5791 9.17773C49.6213 8.48411 51.7804 8.20025 53.9326 8.3418C91.5511 10.8595 127.764 23.6217 158.648 45.2471C189.533 66.8724 213.911 96.5367 229.144 131.025C230.019 133 230.493 135.13 230.539 137.289C230.585 139.449 230.201 141.596 229.41 143.605C228.642 145.619 227.48 147.459 225.993 149.019C224.506 150.578 222.723 151.825 220.748 152.688L47.6025 228.331C45.0216 229.467 42.1911 229.919 39.3848 229.643C36.5785 229.366 33.8909 228.371 31.5811 226.754C29.2712 225.137 27.4166 222.952 26.1973 220.409C24.9779 217.867 24.4342 215.052 24.6191 212.238L36.4824 23.6631C36.6205 21.5109 37.1809 19.4069 38.1328 17.4717C39.0849 15.5363 40.4094 13.8069 42.0303 12.3838C43.6511 10.9607 45.5368 9.87139 47.5791 9.17773ZM50.0107 70.1533C55.8164 69.7953 61.6321 70.677 67.0713 72.7383C72.5105 74.7996 77.4493 77.9936 81.5596 82.1094C85.6698 86.2252 88.8582 91.1683 90.9121 96.6104C92.966 102.052 93.8385 107.87 93.4727 113.675C93.1067 119.48 91.51 125.141 88.7891 130.282C86.068 135.423 82.2851 139.928 77.6904 143.495C73.0958 147.062 67.7947 149.611 62.1396 150.973C56.4845 152.335 50.6045 152.479 44.8896 151.395L41.0176 213.242L68.2021 201.343C65.342 191.746 66.0906 181.435 70.3076 172.353C74.5247 163.27 81.919 156.044 91.0957 152.036C100.272 148.029 110.598 147.516 120.126 150.596C129.654 153.675 137.728 160.135 142.823 168.755L183.85 150.837C179.633 141.184 174.466 132.028 168.453 123.49C164.559 126.488 159.679 129.361 154.238 131.025C145.23 133.78 134.384 133.212 124.991 124.297C115.965 115.729 113.905 105.659 115.26 96.8232C116.276 90.1964 119.169 84.3575 122.131 80.1387C100.571 66.999 76.0957 59.2651 50.7988 57.6738L50.0107 70.1533ZM114.111 165.985C108.67 164.478 102.875 164.888 97.6992 167.146C92.5239 169.405 88.2827 173.374 85.6865 178.389C83.0904 183.403 82.2971 189.158 83.4404 194.688L127.587 175.425C124.311 170.826 119.553 167.493 114.111 165.985ZM51.834 41.2861C83.442 43.2863 113.888 53.9542 139.832 72.1201C165.775 90.2859 186.213 115.247 198.903 144.265L214.139 137.632C200.105 105.893 177.662 78.595 149.235 58.6904C120.809 38.7858 87.4806 27.0329 52.8564 24.7012L51.834 41.2861ZM59.7861 87.5752C56.2868 86.4937 52.5901 86.2066 48.9658 86.7354L45.9404 134.805C49.4697 135.784 53.173 135.962 56.7803 135.328C60.3875 134.694 63.8082 133.263 66.792 131.139C69.7757 129.015 72.2483 126.251 74.0283 123.05C75.8083 119.849 76.852 116.29 77.082 112.635C77.3121 108.979 76.7231 105.318 75.3584 101.919C73.9938 98.52 71.8872 95.4688 69.1934 92.9873C66.4994 90.5058 63.2855 88.6567 59.7861 87.5752ZM134.071 88.1943C132.118 90.9133 130.136 94.8229 129.494 99.0059C128.771 103.723 129.68 108.893 134.905 113.853C139.764 118.464 144.877 118.83 150.027 117.255C153.541 116.18 156.893 114.207 159.626 112.111C152.06 103.238 143.496 95.2079 134.071 88.1943Z" fill="#BF0008"/>
</svg>
